<?xml version="1.0" standalone="no"?>
<!DOCTYPE svg PUBLIC "-//W3C//DTD SVG 20010904//EN"
 "http://www.w3.org/TR/2001/REC-SVG-20010904/DTD/svg10.dtd">
<svg version="1.0" xmlns="http://www.w3.org/2000/svg"
 width="746.000000pt" height="746.000000pt" viewBox="0 0 746.000000 746.000000"
 preserveAspectRatio="xMidYMid meet">
<metadata>
Created by potrace 1.14, written by Peter Selinger 2001-2017
</metadata>
<g transform="translate(0.000000,746.000000) scale(0.100000,-0.100000)"
fill="#000000" stroke="none">
<path d="M0 4289 c0 -3016 1 -3171 18 -3164 9 4 44 18 78 31 33 12 109 43 170
69 131 56 332 124 492 165 132 34 217 72 371 164 187 111 271 155 369 192 104
39 231 74 268 74 22 0 22 -1 8 -29 -26 -53 -46 -172 -39 -234 5 -50 3 -61 -12
-73 -17 -13 -17 -13 2 -14 18 0 23 -12 38 -83 63 -301 256 -780 405 -1002 75
-113 151 -195 180 -195 25 0 148 96 215 169 60 64 91 133 124 275 14 61 36
135 49 164 13 28 21 52 18 52 -13 0 -56 -116 -79 -214 -35 -150 -72 -221 -156
-301 -38 -35 -92 -80 -121 -99 l-53 -36 -53 53 c-232 228 -559 1068 -539 1387
6 93 19 132 68 200 18 25 45 66 59 93 l26 47 13 -197 c7 -109 15 -200 17 -202
7 -7 4 139 -6 292 -10 147 -9 149 20 258 33 119 90 243 179 384 l56 90 3 -42
c3 -36 -3 -52 -39 -105 -24 -35 -61 -103 -83 -153 -71 -160 -61 -246 58 -484
136 -270 387 -644 515 -765 17 -17 31 -35 31 -42 0 -19 46 -51 134 -93 82 -38
305 -168 383 -224 24 -17 50 -41 59 -55 9 -13 29 -88 45 -165 22 -107 36 -151
57 -180 15 -22 35 -52 45 -68 11 -16 23 -29 29 -29 6 0 8 -11 4 -28 l-6 -27
14 24 14 25 27 -53 26 -53 -23 -27 -23 -26 23 20 c20 16 25 17 33 5 18 -26 -1
30 -36 105 -59 129 -74 256 -37 313 10 15 12 23 4 18 -19 -11 -43 -65 -42 -89
4 -40 1 -47 -18 -39 -47 19 -59 38 -82 132 -31 129 -42 152 -92 192 -57 46
-203 135 -355 215 -71 37 -128 74 -138 89 -9 14 -19 23 -22 20 -8 -7 -133 142
-212 254 -81 114 -126 184 -113 176 6 -3 -3 28 -19 70 -39 100 -159 488 -160
517 -1 21 -1 21 -10 -3 -9 -28 -8 -4 16 290 20 242 21 344 6 645 -7 139 -9
260 -4 272 7 20 12 16 60 -47 56 -74 83 -123 103 -185 18 -56 56 -131 177
-344 116 -204 194 -326 227 -354 11 -10 14 -16 6 -12 -8 4 -5 -2 7 -12 11 -10
49 -54 84 -98 203 -258 606 -714 712 -806 33 -30 57 -48 52 -40 -5 9 2 7 17
-5 14 -10 24 -22 21 -26 -2 -4 3 -5 11 -2 10 4 16 1 16 -7 -1 -32 -129 -252
-213 -366 -20 -28 -40 -66 -43 -84 l-5 -34 14 30 c8 17 35 62 61 100 25 39 73
111 106 160 33 50 60 84 60 76 0 -11 5 -10 23 5 35 30 82 53 93 46 40 -26 91
-169 70 -194 -6 -7 2 -2 18 12 60 53 201 260 272 402 l54 108 39 0 c40 0 84
32 96 71 3 10 21 28 40 39 26 16 37 32 45 63 5 23 18 67 27 97 10 33 18 100
20 170 4 113 9 148 18 138 3 -3 17 -45 31 -93 14 -48 44 -133 67 -189 40 -98
41 -104 41 -221 1 -66 -3 -133 -7 -150 l-8 -30 17 29 c9 16 19 55 21 87 l6 58
31 -15 31 -15 -32 26 c-29 23 -33 32 -33 74 0 26 -13 87 -30 136 -19 57 -27
92 -20 99 20 20 123 6 183 -25 59 -30 151 -57 293 -84 107 -20 277 -59 464
-105 85 -21 209 -51 275 -65 237 -52 509 -143 740 -248 55 -25 134 -59 175
-76 42 -17 100 -47 131 -65 48 -30 59 -45 96 -118 47 -94 66 -164 88 -328 9
-63 36 -185 60 -270 24 -85 58 -234 75 -330 17 -96 33 -185 36 -198 4 -21 8
-22 124 -22 l120 0 0 3730 0 3730 -3730 0 -3730 0 0 -3171z m4765 2589 c29
-34 48 -75 42 -91 -2 -6 -15 10 -29 34 -14 24 -38 55 -52 68 -14 14 -26 28
-26 33 0 15 36 -10 65 -44z m664 -421 c28 -82 5 -68 -31 19 -42 99 -42 102
-14 69 14 -16 35 -56 45 -88z m225 -719 c-21 -47 -51 -88 -65 -88 -5 0 0 18
11 40 24 48 49 149 51 210 2 35 4 26 12 -38 9 -72 8 -88 -9 -124z m-622 70 c3
-32 -1 -36 -97 -100 -90 -61 -203 -117 -277 -139 -39 -11 -35 -5 18 26 71 42
208 168 266 246 l52 70 18 -35 c10 -19 19 -49 20 -68z m653 -238 c9 -51 81
-150 135 -186 23 -15 65 -35 93 -45 28 -10 53 -21 54 -26 2 -5 -26 -20 -62
-32 -75 -27 -127 -24 -201 8 -24 11 -44 17 -44 14 0 -18 118 -159 156 -186 48
-34 52 -47 7 -23 -59 30 -131 96 -157 143 -28 50 -54 138 -43 149 3 3 18 -6
34 -20 15 -15 56 -41 90 -58 52 -25 69 -29 105 -24 77 12 77 22 -1 46 -118 35
-178 106 -188 222 -7 67 11 82 22 18z m-544 -101 c9 -35 29 -131 44 -214 15
-82 42 -195 60 -250 47 -140 85 -307 85 -373 0 -38 -11 -86 -31 -142 -58 -165
-62 -198 -64 -530 l-2 -305 -46 -157 c-59 -199 -107 -323 -160 -415 -23 -40
-44 -73 -47 -73 -7 0 -25 31 -70 119 -46 90 -93 137 -147 146 -133 22 -176 37
-223 80 -29 27 -107 37 -289 37 -90 -1 -117 -4 -131 -17 -15 -13 -23 -14 -39
-5 -18 9 -25 7 -45 -15 -13 -14 -27 -22 -30 -17 -9 14 -122 26 -238 25 -142
-1 -187 -21 -289 -128 -110 -116 -140 -135 -208 -135 -74 1 -138 29 -147 66
-4 15 -3 43 2 63 8 31 15 37 47 45 59 15 45 39 -23 38 -78 -1 -129 -46 -141
-124 -7 -45 -5 -60 16 -105 13 -29 28 -53 32 -53 5 0 28 -18 51 -41 24 -22 68
-52 99 -66 51 -23 64 -25 157 -21 122 6 141 14 242 110 l75 71 89 -22 c101
-25 292 -27 336 -5 20 11 24 10 24 -2 0 -8 8 -14 18 -14 9 0 26 -7 36 -15 29
-22 98 -19 129 5 l25 20 5 -21 c4 -16 10 -20 24 -14 10 4 25 7 33 6 8 -1 38
-4 65 -8 28 -3 80 -7 116 -8 51 -1 73 -7 94 -23 15 -12 33 -22 40 -22 8 0 27
-21 43 -47 16 -27 46 -64 66 -83 19 -19 36 -39 36 -45 0 -12 -66 -106 -149
-215 -36 -46 -103 -136 -147 -200 -107 -151 -132 -180 -155 -180 -10 0 -19 4
-19 10 0 15 -46 23 -68 11 -15 -8 -23 -7 -32 4 -14 17 -70 20 -70 4 0 -14 -42
0 -56 20 -10 12 -15 13 -27 3 -8 -7 -18 -9 -21 -4 -3 5 -38 12 -78 15 -51 4
-90 15 -132 36 -43 21 -64 27 -73 19 -9 -7 -17 -5 -29 7 -10 10 -23 13 -33 9
-9 -4 -31 -9 -49 -12 -26 -3 -37 -12 -50 -38 -14 -30 -20 -34 -53 -34 -21 0
-41 -5 -44 -11 -5 -7 -14 -3 -26 10 -16 17 -24 19 -45 11 -33 -13 -34 -13 -27
6 5 14 1 16 -20 12 -29 -6 -34 1 -15 20 9 9 6 12 -16 12 -17 0 -39 -11 -58
-30 -34 -34 -38 -36 -38 -15 0 22 -21 18 -50 -10 l-26 -25 -110 68 c-249 154
-583 450 -674 596 -27 44 -87 183 -147 341 -40 105 -63 154 -122 264 -31 57
-73 65 -136 26 -94 -58 -199 -9 -283 133 -54 91 -164 313 -207 415 -52 126
-58 165 -40 245 21 91 83 277 111 333 25 51 38 59 91 59 30 0 163 -33 185 -46
6 -4 -17 -92 -27 -102 -2 -3 -23 7 -45 22 -29 19 -51 26 -82 24 l-43 -1 44 -4
c50 -5 111 -45 111 -73 0 -27 -77 -119 -106 -126 -60 -15 23 -69 108 -69 32 0
58 -3 58 -7 0 -15 -45 -53 -60 -50 -8 1 -3 -5 12 -15 18 -11 30 -29 32 -48 3
-16 9 -56 14 -87 l9 -58 -31 0 c-17 0 -44 -9 -61 -20 -16 -11 -25 -20 -19 -20
5 0 19 7 30 15 10 8 34 15 52 15 29 0 35 -5 48 -37 28 -74 38 -87 74 -94 26
-6 40 -3 54 9 10 9 28 17 39 17 14 0 23 7 25 20 6 30 22 43 22 18 0 -12 4 -25
10 -28 10 -6 123 108 151 154 24 37 35 76 19 66 -17 -10 -5 27 26 84 13 24 24
46 24 49 0 2 -13 2 -30 -1 -35 -7 -37 1 -17 59 30 84 30 94 2 94 -14 0 -25 5
-25 11 0 6 29 41 65 78 52 54 63 71 58 90 -5 19 -3 22 13 18 60 -18 457 -97
462 -93 3 3 -4 6 -16 6 -12 0 -22 6 -22 13 0 26 23 132 30 140 9 10 120 -9
134 -23 16 -16 -10 -122 -35 -142 -12 -10 -17 -18 -11 -18 16 0 42 29 42 46 0
10 8 14 23 12 12 -2 21 -9 19 -17 -12 -53 -32 -212 -30 -241 1 -33 1 -33 5 -5
14 118 36 242 44 252 7 8 1 13 -21 18 -44 10 -38 29 8 22 20 -3 46 -8 56 -13
14 -5 17 -4 12 4 -4 7 -16 12 -27 12 -17 0 -19 5 -15 38 l6 37 -10 -32 c-13
-42 -50 -47 -50 -7 0 37 -18 64 -42 64 -34 0 -143 21 -158 30 -11 7 -10 13 5
37 32 49 128 144 190 188 73 52 250 118 377 141 80 15 99 15 157 3 247 -51
577 46 746 220 l39 41 111 0 c60 0 147 4 192 10 92 10 308 78 369 115 21 14
43 23 48 22 5 -2 17 -32 27 -68z m534 -339 c-3 -4 8 -37 25 -72 75 -167 63
-418 -25 -523 -23 -27 -22 -23 9 40 18 39 36 90 40 115 l6 45 -17 -30 -18 -30
-6 95 c-7 98 -30 203 -55 252 -22 42 -17 54 11 28 36 -34 33 -8 -10 76 -19 38
-35 73 -35 79 0 5 18 -8 40 -30 21 -21 37 -42 35 -45z m-3125 -29 c-15 -56 1
-170 29 -210 11 -15 36 -36 56 -45 19 -9 40 -26 46 -38 13 -24 29 -25 -178 13
l-113 21 1 62 c0 51 26 157 28 119 1 -6 21 -33 44 -59 l44 -47 6 74 c5 66 34
166 44 155 2 -2 -1 -23 -7 -45z m3061 -202 c12 -17 28 -51 35 -76 16 -54 19
-159 4 -168 -6 -4 -10 6 -10 24 0 52 -21 134 -49 186 -14 28 -27 53 -29 58 -2
4 3 7 11 7 9 0 25 -14 38 -31z m-2815 -76 c-11 -45 -11 -46 -14 -14 -3 25 10
61 22 61 1 0 -2 -21 -8 -47z m-422 -14 l38 -11 -6 -46 c-9 -66 -16 -69 -93
-49 -37 10 -69 19 -71 21 -2 3 8 25 23 50 29 50 41 54 109 35z m221 -25 c73
-12 108 -23 129 -41 27 -23 30 -23 47 -7 18 16 19 16 19 -13 0 -34 22 -69 37
-60 6 4 14 23 17 43 5 26 11 34 22 30 9 -3 23 -6 33 -6 17 0 17 -4 2 -64 -9
-36 -19 -68 -23 -71 -4 -4 -106 14 -227 40 l-219 48 9 24 c5 13 9 42 9 65 0
37 2 40 23 35 12 -3 67 -13 122 -23z m2931 -240 c28 -7 59 -23 69 -34 25 -28
12 -37 -16 -11 -24 23 -63 35 -142 47 -26 3 -50 10 -53 15 -7 11 76 1 142 -17z
m80 -171 c-7 -7 -128 17 -140 27 -4 5 18 14 50 20 33 7 66 16 74 20 12 7 16 1
18 -27 2 -19 1 -37 -2 -40z m-193 10 c56 -14 107 -33 113 -40 9 -10 13 -11 16
-2 4 12 68 4 68 -9 -1 -16 -17 -30 -40 -35 -14 -2 -2 -5 25 -5 28 0 44 2 38 5
-18 7 -16 33 1 33 40 0 68 -39 29 -41 -15 0 -15 -2 2 -9 21 -8 21 -8 -25 -23
-9 -4 -6 -6 8 -6 13 -1 22 -7 22 -17 0 -11 -8 -14 -27 -12 -22 2 -28 8 -27 26
0 17 -5 22 -25 22 -23 0 -24 -1 -6 -13 13 -10 15 -16 6 -21 -16 -10 -71 3 -71
16 0 6 -2 9 -5 6 -3 -2 -56 10 -117 28 l-113 32 1 31 c2 35 10 61 19 61 4 0
52 -12 108 -27z m6 -132 c36 -23 -20 -142 -88 -188 -45 -31 -52 -20 -13 20 36
38 71 111 72 150 0 28 6 32 29 18z m111 -36 c19 -7 36 -19 38 -28 5 -22 -34
-146 -57 -183 -17 -28 -30 -34 -95 -50 -58 -13 -79 -15 -88 -6 -18 18 6 83 49
134 38 45 58 84 68 131 6 30 3 30 85 2z m-225 -247 c24 -58 28 -107 15 -169
-7 -34 -21 -70 -32 -82 -18 -22 -18 -22 -11 18 10 52 10 202 0 238 -11 39 11
35 28 -5z m-71 -811 c13 -17 21 -47 24 -84 7 -107 -59 -231 -148 -280 -25 -13
-34 -16 -20 -6 14 10 36 29 50 43 l25 25 -29 3 -29 4 38 21 c48 27 95 111 95
168 0 54 -24 107 -54 121 -34 15 -33 28 1 19 15 -4 36 -19 47 -34z m-3067
-1209 c-3 -8 -6 -5 -6 6 -1 11 2 17 5 13 3 -3 4 -12 1 -19z m65 -268 c27 -62
8 -39 -41 46 -51 90 -68 153 -50 185 11 21 14 14 41 -81 16 -58 39 -125 50
-150z"/>
<path d="M3425 5014 c-83 -21 -151 -36 -182 -40 -21 -2 -47 -14 -58 -25 l-20
-21 30 18 c24 15 28 16 17 2 -12 -15 -9 -15 30 1 33 12 75 16 188 15 206 -2
400 -42 550 -114 58 -28 110 -51 115 -50 27 6 65 -1 60 -10 -7 -12 25 -13 41
-2 15 9 30 57 16 48 -6 -3 -12 4 -14 16 -2 13 -7 23 -13 23 -5 1 -32 15 -59
33 -28 18 -55 32 -60 32 -6 0 -24 7 -41 16 -76 39 -160 52 -372 58 -114 3
-217 3 -228 0z"/>
<path d="M4895 4841 c-54 -7 -218 -73 -249 -100 -16 -14 -46 -62 -46 -74 0 -2
18 13 40 35 45 42 47 42 134 28 55 -10 70 -8 146 15 102 31 222 43 273 26 20
-7 52 -23 72 -36 l35 -25 -15 31 c-36 68 -240 121 -390 100z"/>
<path d="M3159 4793 c-6 -16 -12 -41 -15 -58 -5 -33 0 -23 21 43 15 47 11 58
-6 15z"/>
<path d="M3898 4682 c45 -17 98 -42 116 -56 44 -33 56 -33 25 0 -35 38 -106
71 -169 78 l-55 7 83 -29z"/>
<path d="M3560 4664 c-85 -14 -161 -39 -237 -78 -29 -14 -59 -26 -67 -26 -8 0
-18 -5 -22 -11 -7 -12 72 -8 114 6 19 6 22 4 22 -22 0 -17 13 -47 29 -70 76
-105 254 -113 306 -13 13 26 14 30 1 30 -35 0 -28 47 7 52 18 2 23 11 25 47
l3 43 42 -6 c87 -14 121 -38 161 -112 36 -67 36 -70 22 -101 -13 -26 -13 -31
-1 -27 7 3 16 12 19 20 8 20 26 8 26 -17 0 -10 5 -19 10 -19 18 0 10 34 -20
89 -35 63 -35 65 -14 57 12 -5 14 -1 8 17 -7 22 -6 22 15 3 28 -25 27 -8 -2
35 -59 87 -261 134 -447 103z"/>
<path d="M2935 4650 c-7 -12 20 -24 34 -16 5 3 12 0 14 -6 4 -8 6 -7 6 3 1 24
-42 39 -54 19z"/>
<path d="M4287 4553 c18 -2 50 -2 70 0 21 2 7 4 -32 4 -38 0 -55 -2 -38 -4z"/>
<path d="M4777 4553 c-3 -5 16 -7 41 -5 80 5 90 9 25 11 -34 0 -64 -2 -66 -6z"/>
<path d="M4147 4543 c-4 -3 -7 -11 -7 -17 0 -7 3 -7 8 0 4 7 16 14 27 17 19 5
19 5 -1 6 -11 0 -24 -2 -27 -6z"/>
<path d="M4458 4543 c6 -2 18 -2 25 0 6 3 1 5 -13 5 -14 0 -19 -2 -12 -5z"/>
<path d="M4925 4540 c27 -12 43 -12 25 0 -8 5 -22 9 -30 9 -10 0 -8 -3 5 -9z"/>
<path d="M4258 4495 c2 -14 6 -25 8 -25 2 0 4 11 4 25 0 14 -4 25 -9 25 -4 0
-6 -11 -3 -25z"/>
<path d="M4328 4513 c18 -2 45 -2 60 0 15 2 0 4 -33 4 -33 0 -45 -2 -27 -4z"/>
<path d="M4600 4506 c0 -2 9 -6 20 -9 11 -3 18 -1 14 4 -5 9 -34 13 -34 5z"/>
<path d="M3281 4477 c30 -57 61 -86 114 -106 31 -12 63 -21 73 -20 9 0 -8 9
-38 21 -35 14 -73 39 -107 74 -29 29 -48 43 -42 31z"/>
<path d="M4754 4481 c-37 -22 -76 -70 -68 -82 3 -5 10 -7 15 -4 10 7 -2 -29
-26 -74 -15 -29 -12 -61 6 -61 5 0 9 12 9 26 0 14 5 34 11 45 10 19 12 17 32
-23 27 -52 81 -83 130 -74 38 7 109 64 90 72 -7 3 -13 14 -13 25 0 18 10 23
38 20 7 -1 12 10 12 29 0 35 8 37 60 10 44 -22 72 -66 73 -115 1 -22 5 -31 13
-28 7 2 14 -4 17 -14 3 -10 5 7 6 38 1 76 -32 123 -120 166 -136 66 -226 80
-285 44z"/>
<path d="M4678 4483 c29 -6 23 -28 -7 -27 -13 0 -18 -3 -12 -9 15 -15 46 -3
46 18 0 14 -7 20 -25 22 -23 1 -23 1 -2 -4z"/>
<path d="M4251 4444 c0 -11 3 -14 6 -6 3 7 2 16 -1 19 -3 4 -6 -2 -5 -13z"/>
<path d="M4593 4437 c-22 -22 -23 -24 -9 -92 10 -53 14 -61 15 -35 0 19 -3 49
-8 66 -5 17 -5 37 -1 45 6 8 10 1 13 -22 l4 -34 1 36 c1 19 7 40 14 47 7 7 8
12 3 11 -6 0 -20 -10 -32 -22z"/>
<path d="M1654 4340 c0 -52 1 -74 3 -47 2 26 2 68 0 95 -2 26 -3 4 -3 -48z"/>
<path d="M1836 4293 c-6 -14 -5 -15 5 -6 7 7 10 15 7 18 -3 3 -9 -2 -12 -12z"/>
<path d="M5060 4179 c-14 -6 -50 -14 -80 -19 l-55 -9 68 3 c47 1 72 7 84 19
20 19 18 20 -17 6z"/>
<path d="M2275 4000 c-48 -49 -52 -60 -16 -40 20 10 75 79 69 85 -2 3 -26 -18
-53 -45z"/>
<path d="M2285 3945 c-22 -31 -42 -61 -44 -67 -6 -17 57 24 87 56 l27 30 -34
-27 c-42 -35 -52 -28 -17 13 22 27 33 50 24 50 -2 0 -21 -25 -43 -55z"/>
<path d="M4700 3995 c0 -7 61 -37 66 -33 2 3 -12 12 -31 21 -19 9 -35 15 -35
12z"/>
<path d="M4686 3945 c5 -43 24 -108 29 -103 2 2 -6 35 -16 73 -11 40 -16 53
-13 30z"/>
<path d="M4848 3933 c7 -3 16 -2 19 1 4 3 -2 6 -13 5 -11 0 -14 -3 -6 -6z"/>
<path d="M2310 3886 c-17 -25 -26 -46 -21 -46 13 0 66 78 58 86 -3 3 -19 -15
-37 -40z"/>
<path d="M4973 3913 c26 -2 67 -2 90 0 23 2 2 3 -48 3 -49 0 -68 -1 -42 -3z"/>
<path d="M5163 3913 c9 -2 25 -2 35 0 9 3 1 5 -18 5 -19 0 -27 -2 -17 -5z"/>
<path d="M2328 3845 c-10 -13 -18 -27 -18 -31 0 -10 30 17 41 38 14 26 -3 22
-23 -7z"/>
<path d="M1937 3719 c7 -7 15 -10 18 -7 3 3 -2 9 -12 12 -14 6 -15 5 -6 -5z"/>
<path d="M1988 3703 c12 -2 32 -2 45 0 12 2 2 4 -23 4 -25 0 -35 -2 -22 -4z"/>
<path d="M4194 3559 c-11 -18 17 -29 78 -29 38 0 62 -5 72 -16 15 -14 16 -14
16 0 0 40 -145 79 -166 45z"/>
<path d="M4782 3520 c-28 -34 -42 -41 -107 -55 -76 -17 -125 -45 -125 -71 0
-19 11 -18 61 10 24 13 62 29 84 36 51 17 87 43 109 81 26 44 16 43 -22 -1z"/>
<path d="M3677 3054 c-17 -17 16 -37 114 -69 60 -19 144 -40 187 -46 42 -6
115 -22 161 -35 102 -29 184 -31 269 -4 35 11 83 20 107 20 23 0 47 6 53 13
10 11 -1 11 -61 2 -40 -7 -99 -20 -131 -30 -71 -21 -142 -15 -247 20 -39 14
-107 29 -151 35 -70 8 -121 26 -256 85 -37 17 -37 17 -45 9z"/>
<path d="M4313 2983 c9 -2 23 -2 30 0 6 3 -1 5 -18 5 -16 0 -22 -2 -12 -5z"/>
<path d="M3939 2758 c-29 -46 -21 -143 13 -173 13 -11 32 -41 42 -68 20 -52
43 -70 84 -65 22 2 28 9 32 38 6 34 6 35 13 8 4 -15 2 -39 -3 -54 -6 -15 -9
-28 -8 -29 2 -1 48 1 103 5 55 4 111 3 124 -2 37 -14 70 16 114 102 40 81 63
174 53 214 -7 28 -44 43 -73 30 -10 -4 -22 -6 -28 -4 -5 2 -59 5 -120 6 -60 1
-132 7 -159 13 -41 10 -52 9 -73 -4 -23 -15 -26 -15 -42 -1 -27 24 -49 19 -72
-16z"/>
<path d="M5522 4290 c0 -14 2 -19 5 -12 2 6 2 18 0 25 -3 6 -5 1 -5 -13z"/>
<path d="M2520 1945 c0 -5 5 -17 10 -25 5 -8 10 -10 10 -5 0 6 -5 17 -10 25
-5 8 -10 11 -10 5z"/>
<path d="M2540 1897 c0 -18 78 -217 136 -344 60 -133 160 -323 171 -323 5 0
-9 26 -57 110 -48 83 -162 336 -207 460 -32 87 -43 113 -43 97z"/>
<path d="M4749 1785 c25 -27 47 -52 49 -55 3 -3 0 4 -6 15 -15 27 -32 46 -62
70 -14 11 -5 -2 19 -30z"/>
<path d="M4813 1625 c0 -22 2 -30 4 -17 2 12 2 30 0 40 -3 9 -5 -1 -4 -23z"/>
<path d="M4789 1550 c13 -11 28 -20 35 -20 6 1 0 10 -13 20 -13 11 -28 20 -35
20 -6 -1 0 -10 13 -20z"/>
<path d="M4928 1493 c6 -2 18 -2 25 0 6 3 1 5 -13 5 -14 0 -19 -2 -12 -5z"/>
<path d="M4993 1483 c9 -2 23 -2 30 0 6 3 -1 5 -18 5 -16 0 -22 -2 -12 -5z"/>
<path d="M5058 1473 c6 -2 18 -2 25 0 6 3 1 5 -13 5 -14 0 -19 -2 -12 -5z"/>
<path d="M5138 1463 c12 -2 32 -2 45 0 12 2 2 4 -23 4 -25 0 -35 -2 -22 -4z"/>
<path d="M1555 1419 c-55 -22 -156 -60 -225 -84 -69 -24 -120 -44 -115 -44 17
-1 186 55 290 96 55 22 118 47 140 56 22 9 33 16 25 16 -8 -1 -60 -19 -115
-40z"/>
<path d="M5238 1453 c18 -2 45 -2 60 0 15 2 0 4 -33 4 -33 0 -45 -2 -27 -4z"/>
<path d="M4581 1360 c-31 -122 -168 -596 -180 -618 -5 -9 -30 -89 -56 -177
-56 -192 -103 -332 -122 -363 -8 -14 -9 -22 -3 -22 22 0 69 126 135 360 20 69
49 161 65 205 76 212 196 655 187 694 -1 9 -13 -27 -26 -79z"/>
<path d="M5377 1443 c18 -2 50 -2 70 0 21 2 7 4 -32 4 -38 0 -55 -2 -38 -4z"/>
<path d="M5523 1433 c15 -2 39 -2 55 0 15 2 2 4 -28 4 -30 0 -43 -2 -27 -4z"/>
<path d="M5648 1423 c17 -2 47 -2 65 0 17 2 3 4 -33 4 -36 0 -50 -2 -32 -4z"/>
<path d="M5783 1413 c15 -2 37 -2 50 0 12 2 0 4 -28 4 -27 0 -38 -2 -22 -4z"/>
<path d="M5893 1403 c9 -2 25 -2 35 0 9 3 1 5 -18 5 -19 0 -27 -2 -17 -5z"/>
<path d="M5993 1393 c9 -2 23 -2 30 0 6 3 -1 5 -18 5 -16 0 -22 -2 -12 -5z"/>
<path d="M6058 1383 c6 -2 18 -2 25 0 6 3 1 5 -13 5 -14 0 -19 -2 -12 -5z"/>
<path d="M6128 1373 c7 -3 16 -2 19 1 4 3 -2 6 -13 5 -11 0 -14 -3 -6 -6z"/>
<path d="M6188 1363 c6 -2 18 -2 25 0 6 3 1 5 -13 5 -14 0 -19 -2 -12 -5z"/>
<path d="M6248 1353 c7 -3 16 -2 19 1 4 3 -2 6 -13 5 -11 0 -14 -3 -6 -6z"/>
<path d="M6308 1343 c7 -3 16 -2 19 1 4 3 -2 6 -13 5 -11 0 -14 -3 -6 -6z"/>
<path d="M1178 1283 c7 -3 16 -2 19 1 4 3 -2 6 -13 5 -11 0 -14 -3 -6 -6z"/>
<path d="M1138 1273 c7 -3 16 -2 19 1 4 3 -2 6 -13 5 -11 0 -14 -3 -6 -6z"/>
<path d="M1098 1263 c7 -3 16 -2 19 1 4 3 -2 6 -13 5 -11 0 -14 -3 -6 -6z"/>
<path d="M1058 1253 c7 -3 16 -2 19 1 4 3 -2 6 -13 5 -11 0 -14 -3 -6 -6z"/>
<path d="M1008 1243 c7 -3 16 -2 19 1 4 3 -2 6 -13 5 -11 0 -14 -3 -6 -6z"/>
<path d="M948 1233 c6 -2 18 -2 25 0 6 3 1 5 -13 5 -14 0 -19 -2 -12 -5z"/>
<path d="M808 1203 c7 -3 16 -2 19 1 4 3 -2 6 -13 5 -11 0 -14 -3 -6 -6z"/>
<path d="M5162 963 c-12 -31 -20 -59 -18 -61 2 -2 14 22 25 54 12 31 20 58 18
61 -2 2 -14 -22 -25 -54z"/>
<path d="M3744 808 c-124 -141 -163 -190 -219 -277 -70 -108 -53 -94 34 28 93
130 277 336 300 336 42 0 60 -103 61 -345 1 -162 -1 -194 -14 -209 -9 -10 -16
-22 -16 -27 1 -5 9 1 19 13 l18 21 26 -33 c15 -19 58 -49 99 -69 40 -20 84
-43 98 -53 l25 -17 -20 22 c-11 12 -56 41 -99 64 -120 65 -122 68 -118 257 5
259 -20 391 -74 399 -15 2 -46 -26 -120 -110z"/>
<path d="M6686 895 c-30 -46 -97 -209 -116 -285 -32 -125 -50 -272 -55 -448
-5 -209 9 -136 24 118 13 238 38 353 109 510 43 95 58 119 61 100 6 -45 -20
-203 -50 -295 -32 -101 -33 -125 -1 -38 31 85 51 177 58 269 7 88 -3 111 -30
69z"/>
<path d="M2825 836 c23 -19 164 -93 150 -78 -5 5 -46 29 -90 52 -44 23 -71 35
-60 26z"/>
<path d="M5106 823 c-6 -14 -5 -15 5 -6 7 7 10 15 7 18 -3 3 -9 -2 -12 -12z"/>
<path d="M3421 794 c0 -11 3 -14 6 -6 3 7 2 16 -1 19 -3 4 -6 -2 -5 -13z"/>
<path d="M5070 760 c-6 -11 -8 -20 -6 -20 3 0 10 9 16 20 6 11 8 20 6 20 -3 0
-10 -9 -16 -20z"/>
<path d="M2358 683 c7 -3 16 -2 19 1 4 3 -2 6 -13 5 -11 0 -14 -3 -6 -6z"/>
<path d="M6657 432 c-37 -130 -67 -244 -67 -252 1 -8 21 53 46 135 64 215 96
335 92 345 -2 5 -33 -97 -71 -228z"/>
<path d="M3013 613 c9 -2 23 -2 30 0 6 3 -1 5 -18 5 -16 0 -22 -2 -12 -5z"/>
<path d="M4215 550 c29 -56 10 -141 -36 -155 -11 -4 -18 -9 -16 -12 10 -10 47
18 62 47 19 37 19 83 0 120 -9 17 -18 30 -21 30 -2 0 2 -13 11 -30z"/>
<path d="M2300 506 c0 -2 8 -10 18 -17 15 -13 16 -12 3 4 -13 16 -21 21 -21
13z"/>
<path d="M2358 463 c6 -2 18 -2 25 0 6 3 1 5 -13 5 -14 0 -19 -2 -12 -5z"/>
<path d="M3480 433 c0 -7 30 -74 66 -150 55 -116 65 -144 61 -177 -4 -28 -2
-35 6 -27 24 24 9 79 -61 221 -39 80 -71 140 -72 133z"/>
<path d="M6581 143 c0 -11 -10 -49 -20 -83 -12 -39 -15 -60 -8 -57 13 4 40
124 33 147 -2 9 -4 6 -5 -7z"/>
<path d="M3424 18 l-19 -23 23 19 c12 11 22 21 22 23 0 8 -8 2 -26 -19z"/>
<path d="M6951 24 c0 -11 3 -14 6 -6 3 7 2 16 -1 19 -3 4 -6 -2 -5 -13z"/>
</g>
</svg>
